<svg width="37" height="42" viewBox="0 0 37 42" fill="none" xmlns="http://www.w3.org/2000/svg">
<mask id="path-1-inside-1_16_186" fill="white">
<path d="M16.5 41.0715C18.7688 41.0715 20.625 39.2503 20.625 37.0243H12.375C12.375 39.2503 14.2106 41.0715 16.5 41.0715ZM28.875 28.93V18.812C28.875 12.5996 25.4925 7.39903 19.5938 6.02299V4.64695C19.5938 2.96737 18.2119 1.61157 16.5 1.61157C14.7881 1.61157 13.4062 2.96737 13.4062 4.64695V6.02299C7.48688 7.39903 4.125 12.5794 4.125 18.812V28.93L0 32.9771V35.0007H33V32.9771L28.875 28.93Z"/>
</mask>
<path d="M16.5 41.0715C18.7688 41.0715 20.625 39.2503 20.625 37.0243H12.375C12.375 39.2503 14.2106 41.0715 16.5 41.0715ZM28.875 28.93V18.812C28.875 12.5996 25.4925 7.39903 19.5938 6.02299V4.64695C19.5938 2.96737 18.2119 1.61157 16.5 1.61157C14.7881 1.61157 13.4062 2.96737 13.4062 4.64695V6.02299C7.48688 7.39903 4.125 12.5794 4.125 18.812V28.93L0 32.9771V35.0007H33V32.9771L28.875 28.93Z" stroke="url(#paint0_linear_16_186)" stroke-width="10" mask="url(#path-1-inside-1_16_186)"/>
<ellipse cx="33" cy="4.89612" rx="4" ry="4.85044" fill="#6C1182"/>
<defs>
<linearGradient id="paint0_linear_16_186" x1="16.5" y1="1.61157" x2="16.5" y2="41.0715" gradientUnits="userSpaceOnUse">
<stop stop-color="#3254BD"/>
<stop offset="0.839229" stop-color="#6C1182"/>
<stop offset="1" stop-color="#4E33A0"/>
</linearGradient>
</defs>
</svg>
