<svg xmlns="http://www.w3.org/2000/svg" width="54" height="54" fill="none" viewBox="0 0 54 54"><circle cx="27" cy="27" r="27" fill="#000"/><path fill="#828384" fill-rule="evenodd" d="M13.1447 27L27.3552 4.26312V20.878L13.1447 27ZM40.8552 27L27.3552 20.8861V4.26312L40.8552 27Z" clip-rule="evenodd"/><path fill="#343535" fill-rule="evenodd" d="M27.3552 35.5261L13.1447 27.5334L27.3552 21.3156V35.5261ZM40.8552 27.5348L27.3552 35.5261V21.3156L40.8552 27.5348Z" clip-rule="evenodd"/><path fill="#828384" fill-rule="evenodd" d="M13.1447 30.5526L27.3552 38.7557V49.7368L13.1447 30.5526ZM40.8552 30.5526L27.3552 49.7368V38.7548L40.8552 30.5526Z" clip-rule="evenodd"/><path fill="#fff" fill-opacity=".7" fill-rule="evenodd" d="M40.8552 27L27.3552 20.8861V4.26312L40.8552 27Z" clip-rule="evenodd"/><path fill="#131313" fill-rule="evenodd" d="M40.8552 27.5348L27.3552 21.3156V35.5261L40.8552 27.5348Z" clip-rule="evenodd"/><path fill="#fff" fill-opacity=".7" fill-rule="evenodd" d="M40.8552 30.5526L27.3552 38.7548V49.7368L40.8552 30.5526Z" clip-rule="evenodd"/></svg>